<?xml version="1.0" standalone="no"?>
<!DOCTYPE svg PUBLIC "-//W3C//DTD SVG 20010904//EN"
 "http://www.w3.org/TR/2001/REC-SVG-20010904/DTD/svg10.dtd">
<svg version="1.0" xmlns="http://www.w3.org/2000/svg"
 width="1500.000000pt" height="1500.000000pt" viewBox="0 0 1500.000000 1500.000000"
 preserveAspectRatio="xMidYMid meet">
<metadata>
Created by potrace 1.14, written by Peter Selinger 2001-2017
</metadata>
<g transform="translate(0.000000,1500.000000) scale(0.100000,-0.100000)"
fill="#000000" stroke="none">
<path d="M7138 14995 c-1 -2 -53 -6 -114 -9 -61 -4 -127 -8 -145 -11 -19 -2
-69 -6 -112 -10 -43 -3 -86 -8 -95 -10 -9 -1 -48 -6 -87 -9 -38 -4 -77 -9 -85
-11 -8 -2 -37 -6 -65 -10 -27 -3 -61 -8 -75 -10 -14 -2 -56 -9 -95 -15 -38 -7
-83 -14 -100 -17 -33 -5 -310 -62 -337 -69 -10 -2 -26 -6 -35 -8 -16 -4 -85
-21 -123 -30 -376 -94 -853 -256 -1169 -397 -355 -159 -676 -329 -976 -517
-102 -63 -379 -249 -410 -274 -5 -5 -60 -45 -120 -91 -158 -118 -380 -299
-481 -392 -255 -234 -433 -411 -616 -615 -80 -90 -82 -92 -203 -240 -38 -47
-72 -87 -75 -90 -40 -34 -405 -555 -506 -720 -55 -92 -54 -89 -154 -265 -102
-179 -199 -371 -305 -600 -49 -107 -142 -337 -190 -470 -26 -71 -51 -139 -56
-150 -28 -67 -144 -457 -185 -625 -19 -78 -65 -274 -69 -297 -24 -117 -54
-291 -69 -388 -3 -22 -8 -51 -11 -65 -2 -14 -7 -47 -10 -75 -3 -27 -8 -66 -10
-85 -3 -19 -7 -55 -10 -80 -7 -78 -16 -174 -21 -215 -26 -240 -26 -1080 1
-1248 2 -12 6 -58 10 -102 9 -114 19 -207 31 -275 2 -14 6 -45 9 -70 9 -71 35
-228 50 -305 8 -38 16 -83 19 -100 3 -16 8 -39 10 -50 36 -170 51 -233 84
-360 200 -757 489 -1430 890 -2075 176 -283 403 -596 621 -855 126 -150 166
-195 316 -353 217 -230 509 -499 740 -683 152 -121 255 -199 264 -199 5 0 11
-4 13 -8 7 -17 276 -201 468 -319 58 -36 122 -76 142 -89 21 -13 40 -24 42
-24 3 0 29 -14 58 -32 241 -144 682 -353 1008 -478 47 -18 99 -38 115 -45 38
-16 374 -126 485 -159 76 -22 335 -90 385 -101 115 -24 176 -37 205 -45 19 -5
58 -12 85 -16 28 -3 53 -8 56 -10 8 -4 390 -64 449 -69 25 -3 63 -7 85 -10 22
-2 67 -7 100 -10 33 -3 78 -8 100 -10 261 -26 1161 -26 1255 -1 8 3 56 7 106
11 50 3 102 8 115 10 13 2 47 6 74 9 59 7 189 25 225 32 14 2 48 7 75 10 28 4
53 8 56 10 4 2 24 6 45 9 78 12 302 57 399 82 55 14 111 27 125 29 14 3 34 8
45 11 11 4 25 8 30 9 141 26 790 244 950 319 17 8 84 37 150 66 499 215 1027
524 1475 861 91 68 174 131 185 140 284 235 359 301 575 513 137 134 250 252
350 365 36 40 70 78 75 84 6 6 54 63 106 126 270 326 506 666 729 1050 75 128
273 514 324 630 15 36 37 84 47 107 10 23 46 111 79 195 34 84 65 162 70 173
17 36 148 438 179 545 24 84 77 288 96 370 12 47 64 301 69 330 3 19 7 44 10
55 2 11 7 40 11 65 4 25 9 54 11 65 7 33 32 216 39 280 4 33 8 71 11 85 2 14
6 59 10 100 3 42 7 89 9 105 27 222 27 1016 0 1260 -7 66 -17 158 -20 190 -4
50 -17 159 -21 180 -2 11 -6 43 -9 70 -3 28 -10 73 -15 100 -5 28 -12 64 -14
80 -29 181 -79 418 -126 600 -18 66 -33 129 -36 139 -12 63 -131 430 -196 606
-51 141 -53 146 -87 222 -12 26 -21 50 -21 53 0 16 -165 374 -242 523 -96 189
-236 437 -307 547 -25 39 -51 80 -58 93 -63 117 -520 736 -587 797 -6 6 -24
26 -40 45 -222 269 -655 693 -946 925 -41 33 -80 65 -87 71 -6 6 -56 44 -110
85 -54 41 -100 76 -103 79 -28 30 -367 256 -596 397 -141 87 -578 318 -730
385 -21 10 -70 32 -109 49 -359 159 -929 352 -1221 414 -11 2 -57 13 -104 24
-47 11 -96 22 -110 25 -14 3 -70 14 -125 25 -55 11 -116 23 -135 26 -19 3 -42
8 -50 10 -8 2 -35 6 -60 9 -25 3 -56 8 -69 11 -49 9 -193 28 -306 40 -106 11
-133 14 -220 20 -44 3 -98 8 -120 11 -45 6 -851 14 -857 9z"/>
</g>
</svg>
